<svg xmlns="http://www.w3.org/2000/svg" version="1.1" xmlns:xlink="http://www.w3.org/1999/xlink" xmlns:svgjs="http://svgjs.dev/svgjs" width="128" height="128" viewBox="0 0 128 128"><g transform="matrix(0.8046875,0,0,0.8046875,12.695351542997102,11.8403078796673)"><svg viewBox="0 0 95 96" data-background-color="#ffffff" preserveAspectRatio="xMidYMid meet" height="129" width="128" xmlns="http://www.w3.org/2000/svg" xmlns:xlink="http://www.w3.org/1999/xlink"><g id="tight-bounds" transform="matrix(1,0,0,1,-0.18017860761868576,0.23799930568587513)"><svg viewBox="0 0 95.36035721523737 95.481" height="95.481" width="95.36035721523737"><g><svg viewBox="0 0 95.36035721523737 95.481" height="95.481" width="95.36035721523737"><g><svg viewBox="0 0 95.36035721523737 95.481" height="95.481" width="95.36035721523737"><g id="textblocktransform"><svg viewBox="0 0 95.36035721523737 95.481" height="95.481" width="95.36035721523737" id="textblock"><g><svg viewBox="0 0 95.36035721523737 95.481" height="95.481" width="95.36035721523737"><g><svg viewBox="0 0 95.36035721523737 95.481" height="95.481" width="95.36035721523737"><g><svg xmlns="http://www.w3.org/2000/svg" xmlns:xlink="http://www.w3.org/1999/xlink" version="1.1" x="0" y="0" viewBox="5.074000000000001 4.441 79.834 79.935" enable-background="new 0 0 90 90" xml:space="preserve" height="95.481" width="95.36035721523737" class="icon-icon-0" data-fill-palette-color="accent" id="icon-0"><g fill="#ff851b" data-fill-palette-color="accent"><circle cx="37.673" cy="78.012" r="6.4" fill="#ff851b" data-fill-palette-color="accent"></circle><circle cx="73.627" cy="78.012" r="6.4" fill="#ff851b" data-fill-palette-color="accent"></circle><path d="M24.758 18.271L21.76 7.149h-3.333H15.74 8.486c-1.885 0-3.412 1.618-3.412 3.614 0 1.997 1.527 3.615 3.412 3.615h7.735L31.31 70.337l0.03-0.007h48.65v-7.229H36.845l-1.702-6.312H79.99v-0.112l4.918-34.229L24.758 18.271zM76.483 37.167H63.467l1.062-9.93 13.249 0.909L76.483 37.167zM44.926 37.167l-2.575-11.451L61.071 27l-1.089 10.167H44.926zM59.719 39.616l-1.17 10.934H47.937l-2.458-10.934H59.719zM38.745 25.467l2.631 11.699H29.853l-3.381-12.54L38.745 25.467zM33.461 50.55l-2.948-10.934h11.413l2.459 10.934H33.461zM62.034 50.55l1.171-10.934h12.928L74.565 50.55H62.034z" fill="#ff851b" data-fill-palette-color="accent"></path></g><polygon points="49.95,17.308 48.141,4.441 29.656,7.741 30.959,15.99 " fill="#ff851b" data-fill-palette-color="accent"></polygon><polygon points="79.688,19.377 81.594,13.28 56.114,6.942 53.157,17.535 " fill="#ff851b" data-fill-palette-color="accent"></polygon></svg></g></svg></g></svg></g></svg></g></svg></g></svg></g><defs></defs></svg><rect width="95.36035721523737" height="95.481" fill="none" stroke="none" visibility="hidden"></rect></g></svg></g></svg>