<svg xmlns="http://www.w3.org/2000/svg" version="1.1" xmlns:xlink="http://www.w3.org/1999/xlink" xmlns:svgjs="http://svgjs.dev/svgjs" width="2000" height="267" viewBox="0 0 2000 267"><g transform="matrix(1,0,0,1,-1.2121212121212466,-0.2949803844697385)"><svg viewBox="0 0 396 53" data-background-color="#ffffff" preserveAspectRatio="xMidYMid meet" height="267" width="2000" xmlns="http://www.w3.org/2000/svg" xmlns:xlink="http://www.w3.org/1999/xlink"><g id="tight-bounds" transform="matrix(1,0,0,1,0.2400000000000091,0.05855415871496916)"><svg viewBox="0 0 395.52 52.882891682570055" height="52.882891682570055" width="395.52"><g><svg viewBox="0 0 499.1947308602133 66.74469276039233" height="52.882891682570055" width="395.52"><g><rect width="5.98915947627374" height="66.74469276039233" x="82.00714343557904" y="0" fill="#ff851b" opacity="1" stroke-width="0" stroke="transparent" fill-opacity="1" class="rect-r$-0" data-fill-palette-color="primary" rx="1%" id="r$-0" data-palette-color="#ff851b"></rect></g><g transform="matrix(1,0,0,1,103.67473086021336,0.1660315740308249)"><svg viewBox="0 0 395.52 66.41262961233068" height="66.41262961233068" width="395.52"><g id="textblocktransform"><svg viewBox="0 0 395.52 66.41262961233068" height="66.41262961233068" width="395.52" id="textblock"><g><svg viewBox="0 0 395.52 66.41262961233068" height="66.41262961233068" width="395.52"><g transform="matrix(1,0,0,1,0,0)"><svg width="395.52" viewBox="0.3 -35.45 214.08999999999997 35.95" height="66.41262961233068" data-palette-color="#ff851b"><path d="M17.55-25.9L17.55-0.8Q17.55 0.2 12.6 0.2 7.65 0.2 7.65-0.8L7.65-0.8 7.65-25.9 1.65-25.9Q0.8-25.9 0.45-28.2L0.45-28.2Q0.3-29.3 0.3-30.45 0.3-31.6 0.45-32.7L0.45-32.7Q0.8-35 1.65-35L1.65-35 23.4-35Q24.25-35 24.6-32.7L24.6-32.7Q24.75-31.6 24.75-30.45 24.75-29.3 24.6-28.2L24.6-28.2Q24.25-25.9 23.4-25.9L23.4-25.9 17.55-25.9ZM49.85 0.1L49.85 0.1Q45.5 0.1 45.15-1.3L45.15-1.3 43.5-7.75 35.55-7.75 34.1-1.55Q33.8 0 29.3 0L29.3 0Q26.9 0 25.75-0.28 24.6-0.55 24.6-0.7L24.6-0.7 33.45-34.55Q33.45-34.95 40.3-34.95 47.15-34.95 47.15-34.55L47.15-34.55 55.8-0.65Q55.8-0.3 53.5-0.1 51.2 0.1 49.85 0.1ZM39.5-24.45L36.8-14.1 42.05-14.1 39.8-24.45 39.5-24.45ZM86.3-33.9L86.3-0.85Q86.3 0 81.25 0 76.19 0 76.19-0.85L76.19-0.85 76.19-12.35 69.19-12.35 69.19-0.85Q69.19 0 64.14 0 59.09 0 59.09-0.85L59.09-0.85 59.09-34Q59.09-35.05 64.14-35.05 69.19-35.05 69.19-34L69.19-34 69.19-22.25 76.19-22.25 76.19-33.9Q76.19-34.6 78.69-34.9L78.69-34.9Q80-35 81.25-35L81.25-35 83.8-34.9Q86.3-34.6 86.3-33.9L86.3-33.9ZM114.79 0.1L114.79 0.1Q110.44 0.1 110.09-1.3L110.09-1.3 108.44-7.75 100.49-7.75 99.04-1.55Q98.74 0 94.24 0L94.24 0Q91.84 0 90.69-0.28 89.54-0.55 89.54-0.7L89.54-0.7 98.39-34.55Q98.39-34.95 105.24-34.95 112.09-34.95 112.09-34.55L112.09-34.55 120.74-0.65Q120.74-0.3 118.44-0.1 116.14 0.1 114.79 0.1ZM104.44-24.45L101.74-14.1 106.99-14.1 104.74-24.45 104.44-24.45ZM135.29-25.9L125.34-25.9Q124.49-25.9 124.14-28.2L124.14-28.2Q123.99-29.15 123.99-30.3 123.99-31.45 124.24-32.7L124.24-32.7Q124.69-35 125.74-35L125.74-35 144.24-35Q147.29-35 148.19-29.45L148.19-29.45Q148.39-28.25 148.39-27.7L148.39-27.7 136.69-9.95 145.84-9.95Q145.89-9.95 145.94-9.95L145.94-9.95Q147.04-9.95 147.49-7.55L147.49-7.55Q147.69-6.4 147.69-5.15 147.69-3.9 147.39-2.5L147.39-2.5Q146.84 0 145.69 0L145.69 0 126.24 0Q125.79 0 124.62-3.03 123.44-6.05 123.44-6.8 123.44-7.55 123.59-7.75L123.59-7.75 135.29-25.9ZM167.06 0.5Q160.04 0.5 155.61-4.1 151.19-8.7 151.19-17.53 151.19-26.35 155.66-30.9 160.14-35.45 167.21-35.45 174.29-35.45 178.64-30.98 182.99-26.5 182.99-17.43 182.99-8.35 178.54-3.93 174.09 0.5 167.06 0.5ZM167.09-25.85Q164.69-25.85 163.06-23.65 161.44-21.45 161.44-17.48 161.44-13.5 162.99-11.38 164.54-9.25 167.06-9.25 169.59-9.25 171.16-11.4 172.74-13.55 172.74-17.55 172.74-21.55 171.11-23.7 169.49-25.85 167.09-25.85ZM214.39-34.05L214.39-1.1Q214.39-0.05 209.69-0.05 204.99-0.05 204.59-0.8L204.59-0.8 196.24-16.4 196.24-0.85Q196.24 0.05 191.61 0.05 186.99 0.05 186.99-0.85L186.99-0.85 186.99-34.3Q186.99-35.05 190.94-35.05L190.94-35.05Q192.49-35.05 194.56-34.77 196.64-34.5 197.09-33.75L197.09-33.75 205.09-18.35 205.09-34.05Q205.09-35 209.74-35 214.39-35 214.39-34.05L214.39-34.05Z" opacity="1" transform="matrix(1,0,0,1,0,0)" fill="#ff851b" class="wordmark-text-0" data-fill-palette-color="primary" id="text-0"></path></svg></g></svg></g></svg></g></svg></g><g transform="matrix(1,0,0,1,0,0.1660315740308249)"><svg viewBox="0 0 66.32871548721846 66.41262961233068" height="66.41262961233068" width="66.32871548721846"><g><svg xmlns="http://www.w3.org/2000/svg" xmlns:xlink="http://www.w3.org/1999/xlink" version="1.1" x="0" y="0" viewBox="5.074000000000001 4.441 79.834 79.935" enable-background="new 0 0 90 90" xml:space="preserve" height="66.41262961233068" width="66.32871548721846" class="icon-icon-0" data-fill-palette-color="accent" id="icon-0"><g fill="#ff851b" data-fill-palette-color="accent"><circle cx="37.673" cy="78.012" r="6.4" fill="#ff851b" data-fill-palette-color="accent"></circle><circle cx="73.627" cy="78.012" r="6.4" fill="#ff851b" data-fill-palette-color="accent"></circle><path d="M24.758 18.271L21.76 7.149h-3.333H15.74 8.486c-1.885 0-3.412 1.618-3.412 3.614 0 1.997 1.527 3.615 3.412 3.615h7.735L31.31 70.337l0.03-0.007h48.65v-7.229H36.845l-1.702-6.312H79.99v-0.112l4.918-34.229L24.758 18.271zM76.483 37.167H63.467l1.062-9.93 13.249 0.909L76.483 37.167zM44.926 37.167l-2.575-11.451L61.071 27l-1.089 10.167H44.926zM59.719 39.616l-1.17 10.934H47.937l-2.458-10.934H59.719zM38.745 25.467l2.631 11.699H29.853l-3.381-12.54L38.745 25.467zM33.461 50.55l-2.948-10.934h11.413l2.459 10.934H33.461zM62.034 50.55l1.171-10.934h12.928L74.565 50.55H62.034z" fill="#ff851b" data-fill-palette-color="accent"></path></g><polygon points="49.95,17.308 48.141,4.441 29.656,7.741 30.959,15.99 " fill="#ff851b" data-fill-palette-color="accent"></polygon><polygon points="79.688,19.377 81.594,13.28 56.114,6.942 53.157,17.535 " fill="#ff851b" data-fill-palette-color="accent"></polygon></svg></g></svg></g></svg></g><defs></defs></svg><rect width="395.52" height="52.882891682570055" fill="none" stroke="none" visibility="hidden"></rect></g></svg></g></svg>